# xmcd CD database file
#
# Track frame offsets:
#	150
#	17707
#	40012
#	53932
#	66430
#	85905
#
# Disc length: 1332 seconds
#
# Revision: 0
# Processed by: cddbd v1.5PL3 Copyright (c) Steve Scherf et al.
# Submitted via: CDex 1.50
#
DISCID=49053206
DTITLE=Idha - A Woman In A Man's World
DYEAR=1994
DGENRE=Pop
TTITLE0=Ooh La La
TTITLE1=A Song For You
TTITLE2=Willin'
TTITLE3=Going To Mexico
TTITLE4=I'm Losing More Than I'll Ever Have
TTITLE5=She
EXTD=YEAR: 1994
EXTT0=
EXTT1=
EXTT2=
EXTT3=
EXTT4=
EXTT5=
PLAYORDER=
